<?xml version="1.0" encoding="UTF-8"?>
<svg id="Layer_1" xmlns="http://www.w3.org/2000/svg" version="1.1" viewBox="0 0 101 40">
  <!-- Generator: Adobe Illustrator 30.1.0, SVG Export Plug-In . SVG Version: 2.1.1 Build 136)  -->
  <defs>
    <style>
      .st0 {
        fill: #fff;
      }
    </style>
  </defs>
  <path class="st0" d="M36.3,16.8c0-.4-.4-.7-.8-1-.4-.1-.8-.3-1.3-.3s-1,0-1.4.3c-.6.1-1,.4-1.4.8s-.7.8-1,1.3c-.3.6-.4,1.1-.4,1.8s0,1.1.3,1.4c0,.4.4.7.8.8.3.1.7.3,1.1.3s.7,0,1.1-.3c.4-.1.7-.4,1-.7s.6-.6.7-1l-2.7.6.3-3,8.2-1v2.4c0,.7-.4,1.4-.7,2.1s-.7,1.3-1,1.7c-.3.6-.7.8-.8,1.1-.3.3-.4.4-.4.4-.4.4-1,.8-1.7,1.1-.7.3-1.3.6-2.1.7-.7.1-1.6.3-2.3.3s-1.6-.1-2.3-.4-1.4-.7-2-1.1c-.6-.6-1.1-1.3-1.4-2.1-.4-1-.7-1.8-.7-2.8s0-1.8.3-2.7.6-1.7,1-2.5,1-1.4,1.7-2.1,1.4-1.1,2.3-1.6,1.7-.7,2.5-1h1.6c.4,0,1,0,1.6.3.6.1,1.3.4,1.8.8.7.4,1.4.8,2,1.6l-3.5,3.7h-.4Z"/>
  <path class="st0" d="M49.7,10.1l9.5,14.4-5.9,2.3-1.6-2.7h-4l-.7,3-5.7-1.8,8.3-15.1h0ZM48.9,21.3l2.3-.4-1-2.5-1.3,3h0Z"/>
  <path class="st0" d="M71.1,16.8c0-.4-.4-.7-.8-1-.4-.1-.8-.3-1.3-.3s-1,0-1.4.3c-.6.1-1,.4-1.4.8s-.7.8-1,1.3c-.3.6-.4,1.1-.4,1.8s0,1.1.3,1.4c0,.4.4.7.8.8.3.1.7.3,1.1.3s.7,0,1.1-.3c.4-.1.7-.4,1-.7s.6-.6.7-1l-2.7.6.3-3,8.2-1v2.4c0,.7-.4,1.4-.7,2.1s-.7,1.3-1,1.7c-.3.6-.7.8-.8,1.1l-.4.4c-.4.4-1,.8-1.7,1.1-.7.3-1.3.6-2.1.7-.7.1-1.6.3-2.3.3s-1.6-.1-2.3-.4c-.7-.3-1.4-.7-2-1.1-.6-.6-1.1-1.3-1.4-2.1-.4-1-.7-1.8-.7-2.8s0-1.8.3-2.7.6-1.7,1-2.5,1-1.4,1.7-2.1c.7-.6,1.4-1.1,2.3-1.6s1.7-.7,2.5-1h1.6c.4,0,1,0,1.6.3.6.1,1.3.4,1.8.8.7.4,1.4.8,2,1.6l-3.5,3.7h-.4Z"/>
</svg>