<?xml version="1.0" encoding="UTF-8"?>
<svg id="Layer_1" xmlns="http://www.w3.org/2000/svg" version="1.1" viewBox="0 0 37 40">
  <!-- Generator: Adobe Illustrator 29.8.1, SVG Export Plug-In . SVG Version: 2.1.1 Build 2)  -->
  <defs>
    <style>
      .st0 {
        fill: #ffaf01;
      }

      .st1 {
        fill: #fe0100;
      }

      .st2 {
        fill: #0c0c0c;
      }
    </style>
  </defs>
  <path class="st2" d="M8.7,18.7c-.1-.3-.3-.5-.6-.7-.3-.1-.6-.2-.9-.2s-.7,0-1,.2c-.4.1-.7.3-1,.6-.3.3-.5.6-.7.9-.2.4-.3.8-.3,1.3,0,.4,0,.8.2,1,.1.3.3.4.6.6.2.1.5.2.7.2.3,0,.5,0,.8-.2.3-.1.5-.3.7-.5.2-.2.4-.4.5-.7l-1.9.4.2-2.1,5.8-.7c0,.6,0,1.1,0,1.6-.1.5-.3,1-.5,1.5-.2.4-.5.9-.7,1.2-.2.4-.5.6-.6.8-.2.2-.3.3-.3.3-.3.3-.7.6-1.2.8-.5.2-.9.4-1.5.5-.5.1-1.1.2-1.6.2-.6,0-1.1-.1-1.6-.3-.5-.2-1-.5-1.4-.8-.4-.4-.8-.8-1-1.4-.3-.7-.5-1.3-.5-2,0-.7,0-1.3.2-1.9.1-.6.4-1.2.7-1.7.3-.5.7-1,1.2-1.5s1-.8,1.6-1.1c.6-.3,1.2-.5,1.8-.7,0,0,.1,0,.3,0,.2,0,.4,0,.7,0,.3,0,.7,0,1.1.2.4.1.8.3,1.3.6.5.3.9.6,1.4,1.1l-2.5,2.6Z"/>
  <path class="st1" d="M18.1,14l6.7,10.1-4.1,1.6-1.1-1.8h-2.8c0,0-.5,2.1-.5,2.1l-4-1.3,5.9-10.6ZM17.4,21.9l1.6-.3-.7-1.8-.9,2.1Z"/>
  <path class="st0" d="M33,18.7c-.1-.3-.3-.5-.6-.7-.3-.1-.6-.2-.9-.2s-.7,0-1,.2c-.4.1-.7.3-1,.6-.3.3-.5.6-.7.9-.2.4-.3.8-.3,1.3,0,.4,0,.8.2,1,.1.3.3.4.6.6.2.1.5.2.7.2.3,0,.5,0,.8-.2.3-.1.5-.3.7-.5.2-.2.4-.4.5-.7l-1.9.4.2-2.1,5.8-.7c0,.6,0,1.1,0,1.6-.1.5-.3,1-.5,1.5-.2.4-.5.9-.7,1.2-.2.4-.5.6-.6.8-.2.2-.3.3-.3.3-.3.3-.7.6-1.2.8-.5.2-.9.4-1.5.5-.5.1-1.1.2-1.6.2-.6,0-1.1-.1-1.6-.3-.5-.2-1-.5-1.4-.8-.4-.4-.8-.8-1-1.4-.3-.7-.5-1.3-.5-2,0-.7,0-1.3.2-1.9.1-.6.4-1.2.7-1.7.3-.5.7-1,1.2-1.5.5-.4,1-.8,1.6-1.1.6-.3,1.2-.5,1.8-.7,0,0,.1,0,.3,0,.2,0,.4,0,.7,0,.3,0,.7,0,1.1.2.4.1.8.3,1.3.6.5.3.9.6,1.4,1.1l-2.5,2.6Z"/>
</svg>