<?xml version="1.0" encoding="UTF-8"?>
<svg id="Layer_1" xmlns="http://www.w3.org/2000/svg" version="1.1" viewBox="0 0 17 17">
  <!-- Generator: Adobe Illustrator 30.1.0, SVG Export Plug-In . SVG Version: 2.1.1 Build 136)  -->
  <defs>
    <style>
      .st0 {
        fill: #fff;
      }
    </style>
  </defs>
  <path class="st0" d="M11.5,16.6h-5.9c-2.8,0-5.1-2.3-5.1-5.1v-5.9C.4,2.7,2.7.4,5.5.4h5.9c2.8,0,5.1,2.3,5.1,5.1v5.9c0,2.8-2.3,5.1-5.1,5.1ZM5.5,1.9c-2,0-3.6,1.6-3.6,3.6v5.9c0,2,1.6,3.6,3.6,3.6h5.9c2,0,3.6-1.6,3.6-3.6v-5.9c0-2-1.6-3.6-3.6-3.6h-5.9Z"/>
  <circle class="st0" cx="4.7" cy="4.6" r=".8"/>
  <path class="st0" d="M8.5,12.2c-2,0-3.7-1.7-3.7-3.7s1.7-3.7,3.7-3.7,3.7,1.7,3.7,3.7-1.7,3.7-3.7,3.7ZM8.5,6c-1.4,0-2.5,1.1-2.5,2.5s1.1,2.5,2.5,2.5,2.5-1.1,2.5-2.5-1.1-2.5-2.5-2.5Z"/>
</svg>