<?xml version="1.0" encoding="UTF-8"?>
<svg id="Layer_1" xmlns="http://www.w3.org/2000/svg" version="1.1" viewBox="0 0 101 41">
  <!-- Generator: Adobe Illustrator 30.1.0, SVG Export Plug-In . SVG Version: 2.1.1 Build 136)  -->
  <defs>
    <style>
      .st0 {
        fill: #fff;
      }
    </style>
  </defs>
  <g>
    <g>
      <path class="st0" d="M49.8,14.8c0-.2-.2-.3-.4-.4-.2,0-.4-.1-.6-.1s-.4,0-.6.1c-.2,0-.4.2-.6.4-.2.2-.3.4-.4.6,0,.2-.2.5-.2.8v.6c0,.2.2.3.3.3s.3.1.5,0c.2,0,.3,0,.5-.1.2,0,.3-.2.4-.3,0-.1.2-.3.3-.4l-1.2.2v-1.3l3.7-.4v1c0,.3-.2.6-.3.9,0,.3-.3.5-.4.7-.2.2-.3.4-.4.5,0,.1-.2.2-.2.2-.2.2-.4.4-.7.5s-.6.3-.9.3-.7.1-1,.1-.7,0-1-.2c-.3-.1-.6-.3-.9-.5-.3-.2-.5-.5-.6-.9-.2-.4-.3-.8-.3-1.2v-1.2c0-.4.2-.7.4-1.1.2-.3.4-.6.7-.9s.6-.5,1-.7.7-.3,1.1-.4h.7c.2,0,.4,0,.7.1.3,0,.5.2.8.3.3.2.6.4.9.7l-1.5,1.6v.2h.2Z"/>
      <path class="st0" d="M56.3,18.3c-.3.2-.7.4-1,.5s-.7.2-1.2.2-.7,0-1-.2c-.3-.1-.6-.3-.8-.5s-.4-.5-.5-.8-.2-.6-.2-.9,0-.8.2-1.1c0-.3.3-.6.5-.8s.5-.4.8-.5.6-.2,1-.2,1,.1,1.4.4c.4.3.7.6.9,1.1l-2.4,1.8h.5c.3,0,.5,0,.6-.1.2,0,.3-.2.5-.3l.8,1.3h0ZM54.6,15.6l-.2-.2h-.6s-.2.1-.2.2c0,0,0,.2-.2.3v.5h0c0,.1,1.2-.8,1.2-.8Z"/>
      <path class="st0" d="M58.2,14v.9h0c0-.6.5-.9,1.2-.9s.3,0,.4,0l-.4,1.7h-.3c-.2,0-.4,0-.6.2-.2.1-.2.4-.2.7v2.1h-1.7c0,.1,0-4.6,0-4.6h1.7-.1Z"/>
      <path class="st0" d="M65.1,16v-.3h-.3c0,0-.2,0-.3.1v3.1h-1.7c0,.1,0-2.8,0-2.8v-.3s-.2-.1-.3-.1h-.3v3.2h-1.6v-4.7h1.6c0-.1,0,.7,0,.7h0c.2-.2.4-.4.6-.6.2-.1.5-.2.8-.2s.5,0,.6.1c.2,0,.3.2.5.4,0-.1.3-.3.5-.4.2,0,.4-.1.6-.1s.5,0,.6.1c.2,0,.3.2.5.4,0,.2.2.3.3.5v3.8h-1.7c0,.1,0-2.9,0-2.9h-.4Z"/>
      <path class="st0" d="M69.9,18.3h0c0,.2-.3.4-.6.4s-.5.1-.7.1-.4,0-.6-.1c-.2,0-.4-.2-.5-.3,0-.1-.3-.3-.4-.5v-1.3c0-.2.2-.4.4-.5,0-.1.3-.2.5-.3.2,0,.4-.1.7-.1s.5,0,.6.1c.2,0,.3.2.4.2v-.2c0-.3,0-.4-.2-.5-.2,0-.4-.1-.6-.1h-.7c-.2,0-.4.1-.6.2l.3-1.3c.3,0,.5-.1.8-.2h1.7c.3,0,.5.2.7.3s.3.3.5.5c0,.2.2.5.2.8v3.1h-1.7c0,.1,0-.5,0-.5l-.2.2h0ZM68.8,16.8c-.2,0-.3,0-.5.2s-.2.2-.2.3,0,.2.2.3h.5c.2,0,.4-.1.5-.2s0-.2,0-.3,0-.2-.2-.3h-.5.2Z"/>
      <path class="st0" d="M73.9,14.7h0c.2-.2.4-.4.6-.5.2,0,.4-.1.6-.1s.4,0,.6.1c.2,0,.3.2.4.3s.2.3.3.5v3.8h-1.8c0,.1,0-2.8,0-2.8v-.2h-.6v3.2h-1.7v-4.7h1.6c0-.1,0,.5,0,.5h.2-.2Z"/>
    </g>
    <g>
      <g>
        <path class="st0" d="M48.6,20.5l4.1,6.3-2.6,1-.7-1.1h-1.7l-.3,1.3-2.5-.8,3.6-6.6h.1ZM48.2,25.4l1-.2-.4-1.1s-.6,1.3-.6,1.3Z"/>
        <path class="st0" d="M55.3,26.9h0c0,.3-.3.5-.5.6s-.5.2-.8.2-.7-.1-1-.4c-.3-.2-.4-.6-.4-1.1v-3.4h1.8c0-.1,0,2.9,0,2.9v.3h.6v-3.2h1.8c0-.1,0,4.8,0,4.8h-1.6v-.8h.1Z"/>
        <path class="st0" d="M59.6,27.7h-.3c-.5,0-.9-.1-1.2-.4-.3-.2-.4-.6-.4-1.2v-1.9h-.4v-1.4h.4v-.5l1.8-.8v1.3h.7v1.4h-.6v1.7h.6l-.3,1.6h-.2v.2h0Z"/>
        <path class="st0" d="M65.3,24.9v1c0,.3-.2.6-.4.9-.2.2-.4.5-.7.6-.3.2-.6.3-1,.3h-1c-.3,0-.6-.2-.9-.4-.3-.2-.5-.4-.7-.7-.2-.3-.3-.6-.3-1v-1c0-.3.2-.6.4-.9s.4-.5.7-.6c.3-.2.6-.3,1-.3h1c.3,0,.6.2.9.4.3.2.5.4.7.7.2.3.3.6.3,1ZM61.8,25.5c0,.2.2.4.4.4h.7c.3-.1.4-.3.5-.4v-.6c0-.2-.2-.3-.4-.4h-.7c-.3.1-.4.3-.5.4v.6Z"/>
      </g>
      <g>
        <path class="st0" d="M72.9,23.3c0-.2-.2-.3-.4-.4-.2,0-.4-.1-.6-.1s-.4,0-.6.1c-.2,0-.4.2-.6.4-.2.2-.3.4-.4.6s-.2.5-.2.8v.6c0,.2.2.3.3.3s.3.1.5,0c.2,0,.3,0,.5-.1.2,0,.3-.2.4-.3,0-.1.2-.3.3-.4l-1.2.2v-1.3l3.7-.4v1c0,.3-.2.6-.3.9,0,.3-.3.5-.4.7-.2.2-.3.4-.4.5l-.2.2c-.2.2-.4.4-.7.5-.3.1-.6.3-.9.3s-.7.1-1,.1-.7,0-1-.2c-.3-.1-.6-.3-.9-.5s-.5-.5-.6-.9c-.2-.4-.3-.8-.3-1.2v-1.2c0-.4.2-.7.4-1.1.2-.3.4-.6.7-.9.3-.3.6-.5,1-.7s.7-.3,1.1-.4h.7c.2,0,.4,0,.7.1.3,0,.5.2.8.3.3.2.6.4.9.7l-1.5,1.6v.2h.2Z"/>
        <path class="st0" d="M77.6,26.8h0c0,.2-.3.4-.6.4s-.5.1-.7.1-.4,0-.6-.1c-.2,0-.4-.2-.5-.3,0-.1-.3-.3-.4-.5v-1.3c0-.2.2-.4.4-.5,0-.1.3-.2.5-.3.2,0,.4-.1.7-.1s.5,0,.6.1c.2,0,.3.2.4.2v-.2c0-.3,0-.4-.2-.5-.2,0-.4-.1-.6-.1h-.7c-.2,0-.4.1-.6.2l.3-1.3c.3,0,.5-.1.8-.2h1.7c.3,0,.5.2.7.3.2.1.3.3.5.5,0,.2.2.5.2.8v3.1h-1.7c0,.1,0-.5,0-.5l-.2.2h0ZM76.5,25.3c-.2,0-.3,0-.5.2s-.2.2-.2.3,0,.2.2.3h.5c.2,0,.4-.1.5-.2s0-.2,0-.3,0-.2-.2-.3h-.5.2Z"/>
        <path class="st0" d="M81.5,22.4v.9h0c0-.6.5-.9,1.2-.9s.3,0,.4,0l-.4,1.7h-.3c-.2,0-.4,0-.6.2-.2.1-.2.4-.2.7v2.1h-1.7c0,.1,0-4.6,0-4.6h1.7,0Z"/>
        <path class="st0" d="M85.9,26.8h0c0,.2-.3.4-.6.4s-.5.1-.7.1-.4,0-.6-.1c-.2,0-.4-.2-.5-.3,0-.1-.3-.3-.4-.5v-1.3c0-.2.2-.4.4-.5,0-.1.3-.2.5-.3.2,0,.4-.1.7-.1s.5,0,.6.1c.2,0,.3.2.4.2v-.2c0-.3,0-.4-.2-.5-.2,0-.4-.1-.6-.1h-.7c-.2,0-.4.1-.6.2l.3-1.3c.3,0,.5-.1.8-.2h1.7c.3,0,.5.2.7.3.2.1.3.3.5.5,0,.2.2.5.2.8v3.1h-1.7c0,.1,0-.5,0-.5l-.2.2h0ZM84.9,25.3c-.2,0-.3,0-.5.2s-.2.2-.2.3,0,.2.2.3h.5c.2,0,.4-.1.5-.2s0-.2,0-.3,0-.2-.2-.3h-.5.2Z"/>
        <path class="st0" d="M88.8,27.2c.2,0,.4.1.6.2h1.3v-.6l-.2-.2h-1.1s-.3,0-.4.2l.2-.5c-.4-.2-.6-.4-.8-.7-.2-.3-.3-.7-.3-1.1v-.7c0-.2.2-.5.4-.6.2-.2.4-.4.7-.5.3-.1.6-.2,1-.2h.5s.3,0,.4.1v-.9l1.4.6-.4.8c.2.2.3.4.4.6v.7c0,.2,0,.6-.2.9,0,.2-.3.5-.6.6.5.3.8.8.8,1.4s0,.5-.2.8c0,.2-.3.4-.5.6s-.5.3-.8.3-.7.1-1.1.1-.9,0-1.2-.1c-.3,0-.6-.2-.8-.2l.8-1.4v-.2h0ZM90.3,24.9c.2,0,.3-.1.4-.2v-.4c0-.1,0-.2-.2-.3h-.5c-.2,0-.3.1-.4.2v.4c0,.1,0,.2.2.3h.5Z"/>
        <path class="st0" d="M97.5,26.7c-.3.2-.7.4-1,.5s-.7.2-1.2.2-.7,0-1-.2c-.3-.1-.6-.3-.8-.5-.2-.2-.4-.5-.5-.8s-.2-.6-.2-.9,0-.8.2-1.1c0-.3.3-.6.5-.8s.5-.4.8-.5.6-.2,1-.2,1,.1,1.4.4.7.6.9,1.1l-2.4,1.8h.5c.3,0,.5,0,.6-.1.2,0,.3-.2.5-.3l.8,1.3h-.1ZM95.7,24l-.2-.2h-.6s-.2.1-.2.2c0,0,0,.2-.2.3v.5h0c0,.1,1.2-.8,1.2-.8Z"/>
      </g>
    </g>
  </g>
  <g>
    <path class="st0" d="M11.6,19.2c-.1-.3-.3-.5-.6-.7-.3-.1-.6-.2-1-.2s-.7,0-1.1.2c-.4.1-.7.4-1,.6-.3.3-.6.6-.8,1-.2.4-.3.8-.3,1.3s0,.8.2,1.1c.2.3.3.5.6.6.2.1.5.2.8.2s.6,0,.9-.2c.3-.1.5-.3.8-.5.2-.2.4-.4.5-.7l-2,.4.2-2.2,6.1-.8v1.7c-.1.6-.3,1.1-.6,1.6-.2.5-.5.9-.7,1.3-.3.4-.5.7-.6.9-.2.2-.3.3-.3.3-.3.3-.7.6-1.2.9s-1,.4-1.5.6c-.5.1-1.1.2-1.7.2s-1.1-.1-1.7-.3c-.5-.2-1-.5-1.5-.9s-.8-.9-1.1-1.5c-.3-.7-.5-1.4-.5-2.1s0-1.4.2-2,.4-1.3.8-1.8c.3-.6.8-1.1,1.3-1.6s1-.9,1.6-1.2,1.2-.6,1.9-.7h1.1c.3,0,.7,0,1.2.2.4.1.9.3,1.4.6s1,.7,1.5,1.1l-2.6,2.8s-.3-.2-.3-.2Z"/>
    <path class="st0" d="M21.6,14.2l7.1,10.7-4.4,1.7-1.2-2h-2.9l-.6,2.2-4.2-1.4,6.2-11.3h0ZM20.9,22.5l1.7-.3-.7-1.9s-1,2.2-1,2.2Z"/>
    <path class="st0" d="M37.3,19.2c0-.3-.3-.5-.6-.7-.3-.1-.6-.2-1-.2s-.7,0-1.1.2c-.4.1-.7.4-1,.6-.3.3-.6.6-.8,1s-.3.8-.3,1.3,0,.8.2,1.1c.2.3.3.5.6.6.2.1.5.2.8.2s.6,0,.9-.2c.3-.1.5-.3.8-.5.2-.2.4-.4.5-.7l-2,.4.2-2.2,6.1-.8v1.7c0,.6-.3,1.1-.6,1.6-.2.5-.5.9-.7,1.3-.3.4-.5.7-.6.9l-.3.3c-.3.3-.7.6-1.2.9s-1,.4-1.5.6c-.5.1-1.1.2-1.7.2s-1.1-.1-1.7-.3c-.5-.2-1-.5-1.5-.9s-.8-.9-1.1-1.5c-.3-.7-.5-1.4-.5-2.1s0-1.4.2-2,.4-1.3.8-1.8c.3-.6.8-1.1,1.3-1.6.5-.5,1-.9,1.6-1.2.6-.3,1.2-.6,1.9-.7h1.1c.3,0,.7,0,1.2.2.4.1.9.3,1.4.6s1,.7,1.5,1.1l-2.6,2.8s-.3-.2-.3-.2Z"/>
  </g>
</svg>