<?xml version="1.0" encoding="UTF-8"?>
<svg id="Layer_1" xmlns="http://www.w3.org/2000/svg" version="1.1" viewBox="0 0 37 41">
  <!-- Generator: Adobe Illustrator 29.8.1, SVG Export Plug-In . SVG Version: 2.1.1 Build 2)  -->
  <defs>
    <style>
      .st0 {
        fill: #ffaf01;
      }

      .st1 {
        fill: #fe0100;
      }

      .st2 {
        fill: #0c0c0c;
      }
    </style>
  </defs>
  <path class="st2" d="M8.4,19.2c-.1-.3-.3-.5-.6-.7-.3-.1-.6-.2-.9-.2s-.7,0-1,.2c-.4.1-.7.3-1,.6-.3.3-.5.6-.7,1-.2.4-.3.8-.3,1.3,0,.4,0,.8.2,1.1.1.3.3.5.6.6.2.1.5.2.8.2.3,0,.6,0,.8-.2.3-.1.5-.3.7-.5.2-.2.4-.4.5-.7l-1.9.4.2-2.2,5.9-.7c0,.6,0,1.1,0,1.7-.1.6-.3,1.1-.5,1.5-.2.5-.5.9-.7,1.2-.3.4-.5.6-.6.8-.2.2-.3.3-.3.3-.3.3-.7.6-1.2.9-.5.2-1,.4-1.5.6-.5.1-1.1.2-1.7.2-.6,0-1.1-.1-1.6-.3-.5-.2-1-.5-1.4-.8-.4-.4-.8-.9-1.1-1.5-.3-.7-.5-1.4-.5-2,0-.7,0-1.3.2-2,.2-.6.4-1.2.7-1.8.3-.6.7-1.1,1.2-1.5s1-.8,1.6-1.1c.6-.3,1.2-.5,1.9-.7,0,0,.1,0,.3,0,.2,0,.4,0,.8,0,.3,0,.7,0,1.1.2.4.1.9.3,1.4.6.5.3,1,.6,1.4,1.1l-2.5,2.7Z"/>
  <path class="st1" d="M18.1,14.4l6.8,10.4-4.3,1.6-1.1-1.9h-2.8c0,0-.6,2.1-.6,2.1l-4.1-1.3,6-10.9ZM17.4,22.4l1.6-.3-.7-1.8-.9,2.1Z"/>
  <path class="st0" d="M33.4,19.2c-.1-.3-.3-.5-.6-.7-.3-.1-.6-.2-.9-.2s-.7,0-1,.2c-.4.1-.7.3-1,.6-.3.3-.5.6-.7,1-.2.4-.3.8-.3,1.3,0,.4,0,.8.2,1.1.1.3.3.5.6.6.2.1.5.2.8.2.3,0,.6,0,.8-.2.3-.1.5-.3.7-.5.2-.2.4-.4.5-.7l-1.9.4.2-2.2,5.9-.7c0,.6,0,1.1,0,1.7-.1.6-.3,1.1-.5,1.5-.2.5-.5.9-.7,1.2-.3.4-.5.6-.6.8-.2.2-.3.3-.3.3-.3.3-.7.6-1.2.9-.5.2-1,.4-1.5.6-.5.1-1.1.2-1.7.2-.6,0-1.1-.1-1.6-.3-.5-.2-1-.5-1.4-.8-.4-.4-.8-.9-1.1-1.5-.3-.7-.5-1.4-.5-2,0-.7,0-1.3.2-2,.2-.6.4-1.2.7-1.8.3-.6.7-1.1,1.2-1.5.5-.4,1-.8,1.6-1.1.6-.3,1.2-.5,1.9-.7,0,0,.1,0,.3,0,.2,0,.4,0,.8,0,.3,0,.7,0,1.1.2.4.1.9.3,1.4.6.5.3,1,.6,1.4,1.1l-2.5,2.7Z"/>
</svg>